<?xml version="1.0" encoding="utf-8"?>
<!-- Generator: Adobe Illustrator 27.5.0, SVG Export Plug-In . SVG Version: 6.00 Build 0)  -->
<svg version="1.1" id="Layer_1" xmlns="http://www.w3.org/2000/svg" xmlns:xlink="http://www.w3.org/1999/xlink" x="0px" y="0px"
	 viewBox="0 0 2481.75 2000" style="enable-background:new 0 0 2481.75 2000;" xml:space="preserve">
<rect x="0" style="fill:#FFFFFF;" width="2481.75" height="2000"/>
<g>
	<path style="fill:#FEEFDC;" d="M1703.669,1802.844c-431.914,131.974-1143.527,123.934-1400.185-275.311
		c-252-392-208-1028,224.42-990.435c401.525,34.881,178.016-347.376,595.58-433.564c417.564-86.188,974.881,149.84,1113.466,588.643
		S2219.996,1645.078,1703.669,1802.844z"/>
	<g>
		<g>
			<path style="fill:#ED7163;" d="M654.612,1757.351c0,0,179.911-55.016,228.518-164.906
				c48.607-109.889-145.896-155.356-143.164-154.914s-208.279,22.394-227.241,52.971c-18.962,30.577-101.156,157.464-76.567,161.439
				C460.748,1655.917,654.612,1757.351,654.612,1757.351z"/>
		</g>
		<g>
			<path style="fill:#FFCC8F;" d="M1026.966,877.931c0,0,50.62-4.946,56.994-2.463c6.374,2.483,7.288,24.898,6.475,30.142
				c-0.814,5.243-43.88,27.457-43.88,27.457L1026.966,877.931z"/>
		</g>
		<g>
			<path style="fill:#FE9F73;" d="M982.84,876.129c0,0,68.221-5.791,83.37,21.891c15.149,27.681-42.341,88.474-78.742,88.196
				C951.068,985.937,982.84,876.129,982.84,876.129z"/>
		</g>
		<g>
			<path d="M1050.691,950.043c1.25-1.28,30.438-31.629,15.067-55.857c-15.193-23.946-77.985-20.096-80.649-19.92l0.224,3.404
				c0.633-0.043,63.432-3.904,77.545,18.344c13.925,21.95-14.341,51.353-14.628,51.647L1050.691,950.043z"/>
		</g>
		<g>
			<path d="M1088.77,905.238c2.527-11.303-3.699-26.008-5.864-28.409c-3.453-1.156-31.151,0.56-55.785,2.8l-0.309-3.397
				c0.136-0.013,13.778-1.249,27.563-2.166c28.593-1.902,29.899-0.659,30.763,0.167c2.979,2.842,9.771,19.184,6.962,31.749
				L1088.77,905.238z M1083.018,876.872L1083.018,876.872L1083.018,876.872z"/>
		</g>
		<g>
			
				<rect x="634.305" y="1789.854" transform="matrix(0.1596 -0.9872 0.9872 0.1596 -1193.6742 2180.907)" width="99.634" height="3.411"/>
		</g>
		<g>
			<path d="M682.44,1746.103c61.812-16.455,123.219-57.123,154.117-87.947c27.36-27.292,40.628-48.636,40.758-48.849l-2.904-1.789
				c-0.129,0.209-13.212,21.24-40.263,48.223c-30.586,30.511-91.382,70.772-152.586,87.064L682.44,1746.103z"/>
		</g>
		<g>
			<g>
				<g>
					<path style="fill:#D6ECF0;" d="M554.376,799.852c0.002-0.255,0.01-0.509,0.024-0.761c0.346-8.555,7.049-15.509,15.586-16.176
						c0.252-0.023,0.506-0.04,0.761-0.053c0.085-0.003,0.166-0.016,0.251-0.017l377.486-7.099c0.085-0.002,0.167,0.008,0.251,0.008
						c0.255,0.003,0.51,0.01,0.762,0.024c8.555,0.346,15.515,7.042,16.183,15.579c0.023,0.252,0.041,0.505,0.053,0.76
						c0.003,0.085,0.016,0.166,0.018,0.251l14.76,784.885c0.154,8.164-6.341,14.9-14.498,15.054l-381.831,7.18
						c-8.157,0.153-14.9-6.334-15.054-14.498l-14.76-784.885C554.366,800.019,554.376,799.937,554.376,799.852z"/>
				</g>
			</g>
			<g>
				<path style="fill:#8BBECC;" d="M972.174,787.389l-31.271-20.56l-367.79,7.865l-31.728,28.983c0,0,3.733,32.774,5.765,33.236
					c2.032,0.462,429.06-2.604,428.92-9.172C975.929,821.173,972.174,787.389,972.174,787.389z"/>
			</g>
			<g style="opacity:0.5;">
				<g>
					<g>
						<g>
							<g>
								<path style="fill:#FFFFFF;" d="M933.055,805.567c0.043,2.306,1.453,4.264,3.446,5.113c0.712,0.308,1.507,0.474,2.339,0.458
									c0.824-0.015,1.604-0.211,2.312-0.546c1.96-0.916,3.303-2.934,3.259-5.24c-0.059-3.137-2.656-5.63-5.785-5.571
									C935.49,799.841,932.996,802.43,933.055,805.567z"/>
							</g>
						</g>
					</g>
				</g>
				<g>
					<g>
						<g>
							<g>
								<path style="fill:#FFFFFF;" d="M915.487,805.897c0.043,2.306,1.453,4.264,3.446,5.113c0.712,0.308,1.507,0.474,2.339,0.458
									c0.831-0.016,1.62-0.211,2.32-0.546c1.96-0.923,3.295-2.933,3.252-5.239c-0.059-3.137-2.648-5.63-5.785-5.572
									C917.921,800.171,915.428,802.76,915.487,805.897z"/>
							</g>
						</g>
					</g>
				</g>
				<g>
					<g>
						<g>
							<g>
								<path style="fill:#FFFFFF;" d="M897.919,806.228c0.043,2.306,1.453,4.264,3.446,5.113c0.712,0.308,1.508,0.474,2.339,0.458
									c0.831-0.016,1.62-0.211,2.32-0.546c1.96-0.923,3.295-2.934,3.252-5.239c-0.059-3.137-2.648-5.63-5.785-5.571
									C900.353,800.502,897.86,803.09,897.919,806.228z"/>
							</g>
						</g>
					</g>
				</g>
			</g>
			<g>
				<g>
					<g>
						<g>
							<g>
								<path style="fill:#20111D;" d="M554.53,808.715c-0.266-14.117,10.962-25.767,25.072-26.032l360.279-6.775
									c14.109-0.265,25.767,10.954,26.033,25.071l14.445,768.148c0.238,12.651-9.828,23.094-22.478,23.332l-365.573,6.875
									c-12.643,0.238-23.094-9.82-23.332-22.471L554.53,808.715z M537.166,808.61l14.594,776.053
									c0.438,23.285,19.662,41.801,42.948,41.363l361.784-6.804c23.278-0.438,41.801-19.663,41.363-42.948l-14.594-776.054
									c-0.438-23.285-19.671-41.8-42.948-41.363l-361.784,6.803C555.243,766.1,536.728,785.325,537.166,808.61z"/>
							</g>
						</g>
					</g>
				</g>
			</g>
		</g>
		<path style="fill:#FE9F73;" d="M616.181,1526.858c3.048-122.867-47.338-192.69-47.338-192.69s39.284-156.251,31.722-213.552
			c-6.964-52.825-62.265-101.544-85.033-55.082c-1.923,3.93-3.619,8.545-5.027,13.889c0,0-3.886,41.292-13.31,79.219
			c-3.919,15.795-8.805,31.003-14.768,42.4c-20.281,38.779-67.561,140.466-77.807,186.475c-10.245,46,2.104,247.051,2.104,247.051
			L320.26,2000h330.159l41.654-257.618l-168.042-79.033C524.031,1663.348,613.143,1649.718,616.181,1526.858z"/>
		<g>
			<path style="fill:#FE9F73;" d="M461.693,1588.38c21.02-1.784,87.966-15.146,99.826,2.32c11.861,17.466,35.406,16.09,35.406,16.09
				s-37.438,64.741-6.113,87.965c31.325,23.224-86.476,14.542-85.932,11.175C505.425,1702.563,440.673,1590.164,461.693,1588.38z"/>
		</g>
		<g>
			<g>
				<path style="fill:#FE9F73;" d="M987.469,1413.12c55.451,14.061,53.396,45.072,52.092,63.422
					c-1.304,18.349-46.135,66.891-46.135,66.891s-24.681-7.151-30.273-45.557c-5.592-38.406,25.641-61.748,25.641-61.748
					L987.469,1413.12z"/>
			</g>
			<g>
				<path style="fill:#FFCC8F;" d="M1005.519,1488.066c5.464-5.731,11.308-6.964,19.917-3.391c2.805,1.164,6.849,3.024,9.123,4.788
					c-18.298,33.329-48.171,63.653-48.171,63.653l-1.504-0.435c-2.976-1.691-6.295-4.106-8.914-7.417
					c-6.815-8.615-2.628-15.008-2.628-15.008L1005.519,1488.066z"/>
			</g>
		</g>
		<g>
			<g>
				<path style="fill:#FE9F73;" d="M981.424,1288.807l1.244-31.373c73.331,26.393,66.446,68.172,62.253,92.88
					c-4.193,24.709-71.396,84.605-71.396,84.605s-32.521-12.958-35.029-65.773C935.988,1316.329,981.424,1288.807,981.424,1288.807z
					"/>
			</g>
			<g>
				<path style="fill:#FFCC8F;" d="M997.239,1361.442c8.166-7.049,16.253-7.948,27.455-1.967c3.649,1.948,8.887,5.006,11.738,7.698
					c-29.216,42.774-73.729,79.945-73.729,79.945l-1.981-0.788c-3.812-2.686-7.993-6.399-11.107-11.236
					c-8.103-12.582-1.581-20.697-1.581-20.697L997.239,1361.442z"/>
			</g>
		</g>
		<g>
			<g>
				<path style="fill:#FE9F73;" d="M986.673,1085.342c74.48,22.951,67.889,66.397,64.851,91.274
					c-3.038,24.877-67.38,87.836-67.38,87.836s-33.089-11.431-38.053-64.072c-4.964-52.641,40.782-86.315,40.782-86.315
					L986.673,1085.342z"/>
			</g>
			<g>
				<path style="fill:#FFCC8F;" d="M1004.412,1189.952c7.829-7.422,15.866-8.696,27.333-3.243c3.736,1.777,9.11,4.587,12.084,7.143
					c-27.193,44.088-69.928,83.29-69.928,83.29l-2.016-0.695c-3.933-2.506-8.282-6.021-11.618-10.706
					c-8.679-12.191-2.543-20.601-2.543-20.601L1004.412,1189.952z"/>
			</g>
		</g>
		<g>
			<path d="M988.899,1283.7l1.425,3.099c-0.387,0.179-38.774,18.257-47.611,57.474c-8.857,39.305,8.632,66.698,8.81,66.971
				l-2.854,1.868c-0.759-1.158-18.472-28.81-9.283-69.59C948.6,1302.63,988.497,1283.885,988.899,1283.7z"/>
		</g>
		<g>
			<path d="M999.611,1357.552l2.418,2.405c-19.464,19.568-50.912,51.839-52.435,55.129c-4.999,11.337-0.284,21.628,14.014,30.586
				l-1.81,2.891c-10.971-6.873-22.536-18.5-15.325-34.853C948.534,1409.033,991.099,1366.109,999.611,1357.552z"/>
		</g>
		<g>
			<path d="M995.311,1106.284l1.953,2.797c-0.365,0.255-36.56,25.863-47.397,61.138c-10.783,35.092,11.046,71.356,11.268,71.719
				l-2.908,1.783c-0.939-1.531-22.862-37.915-11.621-74.503C957.794,1132.8,993.784,1107.349,995.311,1106.284z"/>
		</g>
		<g>
			<path d="M954.467,1248.755c-1.003,4.751-3.353,15.875,18.516,29.825l1.835-2.875c-19.879-12.681-17.871-22.186-17.014-26.245
				c0.069-0.33,0.132-0.63,0.181-0.902c1.423-3.67,29.98-37.163,47.711-57.484l-2.569-2.243
				c-14.35,16.447-47.802,55.126-48.488,59.067C954.594,1248.152,954.534,1248.438,954.467,1248.755z M957.999,1248.483
				c-0.001,0.006-0.002,0.011-0.003,0.017C957.998,1248.494,957.998,1248.489,957.999,1248.483z"/>
		</g>
		<g>
			<path d="M996.652,1429.608l1.569,3.029c-0.28,0.145-28.07,14.868-33.08,45.47c-5.003,30.567,10.677,49.078,10.834,49.259
				l-2.571,2.242c-0.693-0.795-16.903-19.83-11.629-52.052C967.058,1445.281,995.446,1430.233,996.652,1429.608z"/>
		</g>
		<g>
			<path d="M1002.777,1488.848l2.712,2.068l-30.718,40.277c-0.324,0.619-2.69,5.715,2.584,13.077
				c5.356,7.476,8.695,7.172,8.728,7.168c-0.06,0.007-0.09,0.018-0.09,0.018l0.786,3.319c-0.258,0.061-0.849,0.153-1.727,0.011
				c-2.086-0.337-5.791-1.996-10.47-8.529c-6.891-9.619-2.88-16.583-2.707-16.874L1002.777,1488.848z"/>
		</g>
		<g>
			<rect x="984.075" y="799.082" transform="matrix(1 -0.007 0.007 1 -6.7075 6.9612)" width="3.41" height="314.988"/>
		</g>
		<g>
			<g>
				<g>
					<g>
						<g>
							<path style="fill:#000100;" d="M444.146,1570.656c0.911-0.394,1.97,0.025,2.365,0.936
								c0.141,0.326,14.304,32.713,32.038,44.069c0.837,0.536,1.08,1.648,0.544,2.484c-0.18,0.282-0.426,0.496-0.704,0.636
								c-0.549,0.276-1.225,0.264-1.78-0.091c-18.662-11.952-32.806-44.299-33.399-45.67
								C442.815,1572.108,443.237,1571.057,444.146,1570.656z"/>
						</g>
					</g>
				</g>
			</g>
		</g>
		<g>
			<g>
				<g>
					<g>
						<g>
							<path style="fill:#000100;" d="M462.248,1579.452c0.208,0.288,21.025,28.855,40.791,36.119
								c0.933,0.344,1.411,1.377,1.067,2.309c-0.163,0.447-0.485,0.788-0.879,0.986c-0.429,0.216-0.943,0.261-1.429,0.082
								c-20.802-7.645-41.592-36.179-42.466-37.389c-0.582-0.806-0.401-1.929,0.404-2.511
								C460.543,1578.462,461.667,1578.647,462.248,1579.452z"/>
						</g>
					</g>
				</g>
			</g>
		</g>
		<g>
			<path style="fill:#ED7163;" d="M519.441,1065.613c4.209,0.681-2.4,25.526-3.216,30.577c-0.817,5.051-6.992,32.558-6.992,32.558
				l-5.982,1.513l0.135-0.737c-0.181-0.886,9.049-63.315,9.049-63.315S515.232,1064.933,519.441,1065.613z"/>
		</g>
		<g>
			<path d="M402.956,1387.146c10.45-46.924,59.335-151.281,77.96-186.895c5.3-10.129,10.219-24.267,14.624-42.021
				c9.283-37.361,13.228-78.556,13.267-78.967l0.013-0.14l0.036-0.135c1.398-5.305,3.129-10.084,5.145-14.204
				c9.114-18.6,22.135-20.72,31.479-19.209c0.021,0.003,0.043,0.007,0.063,0.01c11.96,1.958,25.051,11.222,35.918,25.415
				c11.127,14.534,18.512,32.075,20.795,49.392c7.329,55.536-28.286,200.272-31.571,213.439c2.393,3.51,13.716,20.859,24.569,50.012
				c11.198,30.08,24.214,79.316,22.633,143.057c-0.699,28.263-6.029,53.109-15.843,73.845c-7.877,16.644-18.64,30.688-31.988,41.744
				c-22.759,18.849-44.836,22.403-45.765,22.545l-0.516-3.372c0.218-0.033,22.067-3.548,44.105-21.8
				c20.4-16.895,45.044-50.222,46.598-113.047c1.566-63.125-11.299-111.868-22.367-141.643
				c-11.995-32.268-24.524-49.833-24.649-50.007l-0.464-0.644l0.194-0.769c0.391-1.56,39.118-156.587,31.684-212.914
				c-4.447-33.734-30.13-67.999-53.882-71.887c-0.019-0.003-0.037-0.006-0.056-0.009c-11.745-1.899-21.382,4.097-27.872,17.342
				c-1.9,3.884-3.541,8.405-4.875,13.441c-0.263,2.708-4.268,42.819-13.339,79.328c-4.47,18.017-9.487,32.411-14.912,42.78
				c-18.564,35.495-67.273,139.445-77.654,186.054c-10.076,45.24,2.019,244.569,2.142,246.577l0.016,0.251l-37.114,156.857
				l-3.32-0.785l36.998-156.367C404.318,1623.155,392.862,1432.464,402.956,1387.146z"/>
		</g>
		<g>
			<path style="fill:#FFCC8F;" d="M509.126,1029.681c7.339-2.652,32.147-6.784,35.995,5.82c3.848,12.604-7.024,90.226-7.024,90.226
				l-2.26,25.462c0,0-1.497,9.26-14.805,11.427c-12.076,1.967-23.57-3.811-23.838-3.975
				C498.043,1152.639,501.787,1032.334,509.126,1029.681z"/>
		</g>
		<g>
			<path d="M508.546,1028.078c5.047-1.824,21.935-5.313,31.695-0.429c3.34,1.671,5.531,4.145,6.511,7.355L543.49,1036
				c-0.707-2.313-2.268-4.046-4.775-5.3c-7.957-3.98-22.852-1.59-28.868,0.535c-0.97,1.056-3.393,7.494-6.144,43.344
				c-1.746,22.77-3,48.973-3.83,66.312c-0.421,8.803-0.685,14.249-0.87,16.721c2.943,1.308,12.16,4.885,21.754,3.322l0.549,3.367
				c-4.202,0.684-8.315,0.479-11.954-0.109c-7.499-1.212-12.981-4.054-13.053-4.099l-0.95-0.585l0.156-1.104
				c0.174-1.231,0.521-8.488,0.961-17.675c0.854-17.847,2.144-44.815,3.958-67.982
				C503.788,1029.798,506.767,1028.72,508.546,1028.078z"/>
		</g>
		<g>
			<g>
				<path style="fill:#333333;" d="M359.116,1786.862c124.927,51.88,274.513,50.706,321.841,48.802
					c7.704-0.31,14.145,5.498,13.16,11.869l-10.463,67.675c-0.639,4.133-4.322,7.33-9.214,8.058
					c-143.737,21.39-298.271-37.008-335.161-52.166c-4.891-2.01-7.783-6.414-7.105-10.801l10.252-66.313
					C343.443,1787.411,351.798,1783.823,359.116,1786.862z"/>
			</g>
			<g>
				<path style="fill:#212121;" d="M665.464,1864.306l2.358,0.364c1.964,0.304,3.31,2.142,3.006,4.106l-3.448,22.304
					c-0.304,1.964-2.142,3.31-4.106,3.006l-2.358-0.365c-1.964-0.303-3.31-2.142-3.006-4.105l3.448-22.305
					C661.662,1865.348,663.5,1864.002,665.464,1864.306z"/>
			</g>
			<g>
				<path style="fill:#212121;" d="M637.102,1865.487l2.358,0.364c1.964,0.304,3.31,2.142,3.006,4.106l-3.448,22.304
					c-0.304,1.964-2.142,3.31-4.106,3.006l-2.358-0.365c-1.964-0.303-3.31-2.142-3.006-4.106l3.448-22.304
					C633.3,1866.529,635.138,1865.183,637.102,1865.487z"/>
			</g>
			<g>
				<path style="fill:#212121;" d="M608.757,1866.561l2.358,0.365c1.964,0.304,3.31,2.142,3.006,4.106l-3.448,22.304
					c-0.304,1.964-2.142,3.31-4.106,3.006l-2.358-0.365c-1.964-0.304-3.31-2.142-3.006-4.106l3.448-22.304
					C604.955,1867.603,606.793,1866.257,608.757,1866.561z"/>
			</g>
			<g>
				<path style="fill:#212121;" d="M581.146,1864.88l2.358,0.364c1.964,0.304,3.31,2.142,3.006,4.106l-3.448,22.304
					c-0.304,1.964-2.142,3.31-4.106,3.007l-2.358-0.365c-1.964-0.304-3.31-2.142-3.006-4.106l3.448-22.305
					C577.344,1865.923,579.182,1864.577,581.146,1864.88z"/>
			</g>
			<g>
				<path style="fill:#212121;" d="M552.932,1865.102l2.358,0.364c1.964,0.304,3.31,2.142,3.006,4.106l-3.448,22.304
					c-0.304,1.964-2.142,3.31-4.106,3.006l-2.358-0.364c-1.964-0.304-3.31-2.142-3.006-4.106l3.448-22.304
					C549.13,1866.144,550.969,1864.798,552.932,1865.102z"/>
			</g>
			<g>
				<path style="fill:#212121;" d="M525.191,1862.269l2.358,0.365c1.964,0.303,3.31,2.142,3.006,4.106l-3.448,22.304
					c-0.304,1.964-2.142,3.31-4.106,3.006l-2.358-0.364c-1.964-0.304-3.31-2.142-3.006-4.106l3.449-22.304
					C521.389,1863.311,523.227,1861.965,525.191,1862.269z"/>
			</g>
			<g>
				<path style="fill:#212121;" d="M497.669,1858.014l2.358,0.364c1.964,0.304,3.31,2.142,3.006,4.106l-3.448,22.304
					c-0.304,1.964-2.142,3.31-4.106,3.006l-2.358-0.365c-1.964-0.304-3.31-2.142-3.006-4.106l3.448-22.304
					C493.867,1859.056,495.706,1857.71,497.669,1858.014z"/>
			</g>
			<g>
				<path style="fill:#212121;" d="M470.368,1852.337l2.358,0.364c1.964,0.303,3.31,2.142,3.006,4.106l-3.448,22.305
					c-0.304,1.964-2.142,3.31-4.106,3.006l-2.358-0.364c-1.964-0.304-3.31-2.142-3.006-4.106l3.448-22.305
					C466.565,1853.38,468.404,1852.033,470.368,1852.337z"/>
			</g>
			<g>
				<path style="fill:#212121;" d="M443.538,1843.606l2.358,0.364c1.964,0.303,3.31,2.142,3.006,4.106l-3.449,22.305
					c-0.303,1.964-2.142,3.31-4.106,3.006l-2.357-0.364c-1.964-0.303-3.31-2.142-3.006-4.106l3.448-22.305
					C439.736,1844.648,441.574,1843.302,443.538,1843.606z"/>
			</g>
			<g>
				<path style="fill:#212121;" d="M416.39,1836.936l2.358,0.364c1.964,0.304,3.31,2.142,3.007,4.106l-3.448,22.305
					c-0.304,1.964-2.142,3.31-4.106,3.006l-2.358-0.364c-1.964-0.304-3.31-2.142-3.006-4.106l3.448-22.304
					C412.588,1837.978,414.426,1836.632,416.39,1836.936z"/>
			</g>
			<g>
				<path style="fill:#212121;" d="M389.692,1827.352l2.358,0.364c1.964,0.304,3.31,2.142,3.006,4.106l-3.448,22.305
					c-0.304,1.964-2.142,3.31-4.106,3.006l-2.358-0.364c-1.964-0.304-3.31-2.142-3.006-4.106l3.448-22.305
					C385.89,1828.394,387.728,1827.048,389.692,1827.352z"/>
			</g>
			<g>
				<path style="fill:#212121;" d="M363.011,1817.661l2.358,0.364c1.964,0.304,3.31,2.142,3.006,4.106l-3.448,22.304
					c-0.304,1.964-2.142,3.31-4.106,3.006l-2.358-0.364c-1.964-0.304-3.31-2.142-3.006-4.106l3.448-22.305
					C359.209,1818.703,361.047,1817.358,363.011,1817.661z"/>
			</g>
			<g>
				<path style="fill:#FEB546;" d="M589.611,1834.92l-33.539-5.185c-1.964-0.304-3.864,0.456-5.205,1.866
					c-2.709-0.269-5.434-0.548-8.184-0.845c2.412-6.045,8.371-9.899,14.612-8.934l33.539,5.185
					c7.349,1.137,12.33,8.521,11.102,16.463l-12.523,81.002c-1.228,7.941-8.206,13.477-15.556,12.341l-33.539-5.185
					c-5.03-0.778-8.948-4.485-10.528-9.292c3.462,0.47,6.943,0.919,10.445,1.339l0.048-0.312c0.398,0.162,0.818,0.283,1.259,0.351
					l33.539,5.185c3.311,0.512,6.455-1.983,7.008-5.56l12.523-81.002C595.166,1838.759,592.922,1835.431,589.611,1834.92z"/>
			</g>
			<g>
				<path style="fill:#FFFFFF;" d="M594.64,1882.026c-0.437,2.825-2.911,4.788-5.526,4.383l-14.589-2.255l1.582-10.232l14.589,2.256
					C593.312,1876.582,595.077,1879.201,594.64,1882.026z"/>
			</g>
		</g>
	</g>
	<g>
		<g>
			<path style="fill:#ED7163;" d="M2220.492,1625.814c0,0-183.668,40.754-280.103-30.93c-96.435-71.684,50.43-207.07,48.27-205.34
				c-2.16,1.73,192.284-83.118,223.848-65.85s165.602,87.197,146.162,102.771C2339.23,1442.037,2220.492,1625.814,2220.492,1625.814
				z"/>
		</g>
		<g>
			<path style="fill:#FFCC8F;" d="M1463.222,1043.948c0,0-46.488,20.633-50.811,25.934c-4.323,5.301,5.923,25.258,9.214,29.42
				c3.291,4.162,51.712,2.278,51.712,2.278L1463.222,1043.948z"/>
		</g>
		<g>
			<path style="fill:#FE9F73;" d="M1500.734,1020.641c0,0-62.221,28.569-61.768,60.121c0.454,31.552,80.432,56.135,111.972,37.96
				S1500.734,1020.641,1500.734,1020.641z"/>
		</g>
		<g>
			<path d="M1478.101,1118.39c-1.718-0.498-42.07-12.53-40.629-41.186c1.425-28.324,57.965-55.906,60.37-57.066l1.482,3.073
				c-0.572,0.274-57.124,27.852-58.446,54.165c-1.305,25.961,37.778,37.624,38.173,37.739L1478.101,1118.39z"/>
		</g>
		<g>
			<path d="M1420.361,1100.445c-8.634-9.55-10.774-27.118-9.582-31.058c0.346-1.144,0.87-2.869,26.689-15.3
				c12.447-5.993,24.928-11.638,25.053-11.694l1.404,3.109c-22.541,10.186-47.49,22.338-49.926,25.045
				c-0.702,3.155,1.124,19.019,8.892,27.611L1420.361,1100.445z M1413.922,1070.639L1413.922,1070.639L1413.922,1070.639z"/>
		</g>
		<g>
			<path d="M2190.734,1629.735c-61.897,16.131-135.371,10.992-177.444-0.61c-37.255-10.272-59.316-22.31-59.534-22.431l1.646-2.988
				c0.216,0.119,21.961,11.975,58.795,22.131c41.648,11.484,114.389,16.57,175.677,0.596L2190.734,1629.735z"/>
		</g>
		<g>
			<g>
				<g>
					<path style="fill:#D6ECF0;" d="M1836.022,743.185c-0.128-0.221-0.26-0.438-0.396-0.65c-4.516-7.275-13.775-10.023-21.532-6.399
						c-0.231,0.104-0.46,0.214-0.688,0.329c-0.075,0.039-0.152,0.068-0.227,0.109L1481.18,916.359
						c-0.075,0.04-0.141,0.089-0.215,0.131c-0.221,0.128-0.438,0.26-0.651,0.396c-7.275,4.516-10.033,13.772-6.408,21.529
						c0.104,0.23,0.214,0.459,0.328,0.687c0.039,0.075,0.068,0.153,0.109,0.227l373.818,690.305
						c3.888,7.18,12.859,9.843,20.033,5.958l335.82-181.855c7.174-3.885,9.846-12.852,5.958-20.033L1836.153,743.4
						C1836.112,743.325,1836.063,743.259,1836.022,743.185z"/>
				</g>
			</g>
			<g>
				<path style="fill:#8BBECC;" d="M1466.3,938.162l17.085-33.297l323.938-174.343l41.889,9.592c0,0,12.896,30.36,11.356,31.763
					s-374.666,209.105-377.78,203.32C1479.676,969.412,1466.3,938.162,1466.3,938.162z"/>
			</g>
			<g style="opacity:0.5;">
				<g>
					<g>
						<g>
							<g>
								<path style="fill:#FFFFFF;" d="M1509.297,934.71c1.098,2.028,0.836,4.427-0.48,6.148c-0.468,0.619-1.078,1.155-1.809,1.551
									c-0.724,0.392-1.5,0.607-2.281,0.664c-2.157,0.169-4.319-0.926-5.418-2.954c-1.494-2.759-0.463-6.208,2.29-7.698
									C1504.358,930.926,1507.803,931.95,1509.297,934.71z"/>
							</g>
						</g>
					</g>
				</g>
				<g>
					<g>
						<g>
							<g>
								<path style="fill:#FFFFFF;" d="M1524.749,926.343c1.098,2.028,0.836,4.427-0.48,6.148c-0.468,0.619-1.078,1.155-1.809,1.551
									c-0.731,0.396-1.514,0.614-2.288,0.668c-2.16,0.162-4.313-0.93-5.411-2.958c-1.494-2.759-0.469-6.204,2.29-7.698
									C1519.809,922.559,1523.254,923.583,1524.749,926.343z"/>
							</g>
						</g>
					</g>
				</g>
				<g>
					<g>
						<g>
							<g>
								<path style="fill:#FFFFFF;" d="M1540.2,917.975c1.098,2.028,0.836,4.427-0.48,6.148c-0.468,0.619-1.078,1.155-1.809,1.551
									c-0.731,0.396-1.514,0.614-2.288,0.668c-2.16,0.162-4.313-0.93-5.411-2.958c-1.494-2.759-0.469-6.204,2.29-7.698
									C1535.26,914.192,1538.705,915.216,1540.2,917.975z"/>
							</g>
						</g>
					</g>
				</g>
			</g>
			<g>
				<g>
					<g>
						<g>
							<g>
								<path style="fill:#20111D;" d="M2206.102,1426.559c6.025,11.127,1.885,25.028-9.234,31.049l-321.521,174.112
									c-11.126,6.025-25.031,1.896-31.056-9.231l-365.847-675.585c-6.724-12.416-2.106-27.923,10.303-34.643l316.865-171.591
									c12.409-6.72,27.919-2.113,34.643,10.303L2206.102,1426.559z M1798.161,725.33l-318.189,172.308
									c-20.473,11.087-28.089,36.674-16.998,57.153l369.613,682.538c11.09,20.48,36.681,28.085,57.153,16.998l318.189-172.308
									c20.48-11.09,28.088-36.674,16.998-57.153l-369.612-682.538C1844.224,721.849,1818.64,714.24,1798.161,725.33z"/>
							</g>
						</g>
					</g>
				</g>
			</g>
		</g>
		<path style="fill:#FE9F73;" d="M2375.726,1396.845c0,0-88.299-181.046-119.876-216.03
			c-31.582-34.99-122.821-100.19-159.574-123.946c-10.804-6.98-22.548-17.808-33.74-29.623
			c-26.885-28.363-50.609-62.382-50.609-62.382c-3.858-3.956-7.608-7.137-11.217-9.61c-42.702-29.218-66.826,40.423-46.863,89.824
			c21.648,53.59,132.809,170.212,132.809,170.212s-9.45,85.584,53.731,191.006c63.169,105.42,147.433,73.383,147.433,73.383
			l-107.301,151.561L2481.75,2000v-488.763L2375.726,1396.845z"/>
		<g>
			<path style="fill:#FE9F73;" d="M2305.136,1383.73c-19.171,8.803-84.012,30.154-85.729,51.197
				c-1.717,21.043-22.885,31.445-22.885,31.445s64.474,37.897,48.655,73.538c-15.82,35.642,82.418-29.946,80.286-32.608
				C2323.33,1504.64,2324.307,1374.928,2305.136,1383.73z"/>
		</g>
		<g>
			<g>
				<path style="fill:#FE9F73;" d="M1761.248,1490.23c-41.329,39.554-24.263,65.528-14.088,80.854
					c10.174,15.326,73.102,35.483,73.102,35.483s17.955-18.382,3.902-54.559c-14.053-36.177-52.733-41.103-52.733-41.103
					L1761.248,1490.23z"/>
			</g>
			<g>
				<path style="fill:#FFCC8F;" d="M1782.462,1564.343c-7.578-2.296-13.271-0.49-19.003,6.86c-1.867,2.395-4.47,6.006-5.581,8.661
					c32.343,19.989,73.278,31.662,73.278,31.662l1.094-1.119c1.757-2.938,3.455-6.675,4.104-10.847
					c1.687-10.854-5.106-14.355-5.106-14.355L1782.462,1564.343z"/>
			</g>
		</g>
		<g>
			<g>
				<path style="fill:#FE9F73;" d="M1705.267,1379.07l-16.538-26.689c-50.813,59.094-24.239,92.059-8.418,111.496
					c15.821,19.437,103.811,38.454,103.811,38.454s21.917-27.298-1.919-74.495C1758.366,1380.638,1705.267,1379.07,1705.267,1379.07
					z"/>
			</g>
			<g>
				<path style="fill:#FFCC8F;" d="M1727.287,1450.071c-10.579-2.112-18.06,1.09-24.861,11.813
					c-2.215,3.493-5.267,8.734-6.423,12.481c46.497,22.831,103.545,33.249,103.545,33.249l1.336-1.662
					c1.994-4.216,3.803-9.507,4.131-15.25c0.853-14.94-8.82-18.79-8.82-18.79L1727.287,1450.071z"/>
			</g>
		</g>
		<g>
			<g>
				<path style="fill:#FE9F73;" d="M1600.465,1204.594c-53.509,56.665-26.369,91.225-11.47,111.378
					c14.899,20.152,101.908,43.244,101.908,43.244s23.164-26.248,1.551-74.504c-21.614-48.255-78.012-55.024-78.012-55.024
					L1600.465,1204.594z"/>
			</g>
			<g>
				<path style="fill:#FFCC8F;" d="M1636.563,1304.368c-10.469-2.602-18.091,0.248-25.384,10.644
					c-2.376,3.386-5.668,8.479-6.996,12.169c45.383,24.97,101.885,38.033,101.885,38.033l1.412-1.598
					c2.188-4.118,4.242-9.32,4.836-15.041c1.547-14.885-7.936-19.18-7.936-19.18L1636.563,1304.368z"/>
			</g>
		</g>
		<g>
			<path d="M1696.247,1378.309l0.287,3.399c0.425-0.035,42.736-3.214,69.746,26.561c27.071,29.841,25.346,62.295,25.326,62.62
				l3.404,0.22c0.09-1.381,1.882-34.171-26.204-65.133C1740.642,1374.929,1696.688,1378.271,1696.247,1378.309z"/>
		</g>
		<g>
			<path d="M1723.307,1447.854l-0.92,3.285c26.578,7.44,69.843,20.031,72.79,22.143c9.935,7.404,10.901,18.682,2.872,33.521l3,1.624
				c6.161-11.386,10.498-27.201-3.833-37.88C1793.118,1467.492,1734.93,1451.108,1723.307,1447.854z"/>
		</g>
		<g>
			<path d="M1603.265,1227.073l-0.322,3.396c0.443,0.042,44.557,4.496,71.365,29.855c26.671,25.227,25.54,67.538,25.526,67.963
				l3.409,0.119c0.063-1.795,1.217-44.257-26.59-70.56C1648.976,1231.667,1605.119,1227.249,1603.265,1227.073z"/>
		</g>
		<g>
			<path d="M1708.423,1330.274c-2.539-3.091-50.704-20.271-71.295-27.515l-1.131,3.217c25.441,8.95,66.792,24.027,69.839,26.521
				c0.176,0.212,0.379,0.443,0.602,0.696c2.745,3.11,9.175,10.393-1.877,31.221l3.013,1.598
				c12.159-22.913,4.634-31.437,1.421-35.077C1708.781,1330.693,1708.588,1330.474,1708.423,1330.274z M1705.797,1332.452
				c-0.004-0.005-0.007-0.009-0.01-0.013C1705.791,1332.443,1705.794,1332.448,1705.797,1332.452z"/>
		</g>
		<g>
			<path d="M1761.379,1509.102l0.127,3.409c0.315-0.012,31.752-0.89,51.188,23.273c19.412,24.136,14.886,47.969,14.839,48.205
				l3.342,0.684c0.212-1.033,4.941-25.584-15.523-51.026C1794.854,1508.163,1762.737,1509.052,1761.379,1509.102z"/>
		</g>
		<g>
			<path d="M1785.233,1563.672l-1.342,3.136l46.574,19.917c0.587,0.379,5.156,3.649,4.194,12.653
				c-0.978,9.144-4.033,10.525-4.065,10.538c0.056-0.024,0.087-0.029,0.087-0.029l0.951,3.276c0.255-0.074,0.814-0.285,1.508-0.841
				c1.65-1.321,4.056-4.589,4.91-12.58c1.258-11.766-5.663-15.85-5.958-16.018L1785.233,1563.672z"/>
		</g>
		<g>
			
				<rect x="1536.102" y="934.603" transform="matrix(0.8737 -0.4865 0.4865 0.8737 -337.0531 886.1211)" width="3.41" height="314.988"/>
		</g>
		<g>
			<g>
				<g>
					<g>
						<g>
							<path style="fill:#000100;" d="M2311.675,1359.662c-0.987,0.106-1.702,0.992-1.597,1.98
								c0.038,0.353,3.667,35.515-6.17,54.134c-0.464,0.879-0.128,1.966,0.75,2.43c0.295,0.157,0.615,0.222,0.926,0.207
								c0.614-0.03,1.196-0.374,1.504-0.956c10.353-19.594,6.726-54.712,6.566-56.198
								C2313.549,1360.27,2312.663,1359.563,2311.675,1359.662z"/>
						</g>
					</g>
				</g>
			</g>
		</g>
		<g>
			<g>
				<g>
					<g>
						<g>
							<path style="fill:#000100;" d="M2300.255,1376.234c-0.039,0.353-4.081,35.468-17.704,51.527
								c-0.642,0.758-0.549,1.893,0.208,2.535c0.362,0.308,0.811,0.447,1.25,0.425c0.48-0.024,0.949-0.238,1.284-0.633
								c14.336-16.9,18.371-51.974,18.536-53.458c0.109-0.988-0.602-1.877-1.589-1.986
								C2301.251,1374.532,2300.364,1375.248,2300.255,1376.234z"/>
						</g>
					</g>
				</g>
			</g>
		</g>
		<g>
			<path style="fill:#ED7163;" d="M1997.348,957.249c-3.328,2.666,14.663,21.032,17.862,25.025
				c3.199,3.993,22.124,24.888,22.124,24.888l5.951-1.631l-0.48-0.575c-0.279-0.86-39.067-50.641-39.067-50.641
				S2000.675,954.584,1997.348,957.249z"/>
		</g>
		<g>
			<path d="M2257.116,1179.673c-32.21-35.687-126.162-102.42-159.915-124.236c-9.602-6.204-20.848-16.083-33.427-29.364
				c-26.484-27.94-50.211-61.846-50.448-62.185l-0.08-0.115l-0.098-0.1c-3.83-3.928-7.691-7.234-11.475-9.827
				c-17.094-11.696-29.47-7.126-36.857-1.209c-0.017,0.014-0.034,0.027-0.05,0.04c-9.443,7.596-16.272,22.107-18.736,39.811
				c-2.523,18.129-0.308,37.032,6.236,53.227c20.981,51.94,123.277,160.349,132.622,170.189c-0.354,4.233-1.66,24.909,3.257,55.625
				c5.074,31.693,18.002,80.952,50.78,135.642c14.532,24.252,31.411,43.247,50.166,56.458
				c15.054,10.603,31.339,17.523,48.402,20.569c29.092,5.191,50.055-2.592,50.933-2.926l-1.212-3.188
				c-0.206,0.079-20.951,7.784-49.121,2.756c-26.076-4.653-63.94-21.515-96.242-75.421c-32.46-54.162-45.278-102.918-50.314-134.282
				c-5.458-33.99-3.208-55.448-3.184-55.661l0.086-0.789l-0.547-0.574c-1.109-1.165-111.182-116.996-132.462-169.676
				c-12.749-31.548-7.279-74.018,11.475-89.103c0.015-0.012,0.029-0.023,0.044-0.035c9.285-7.439,20.626-6.968,32.798,1.361
				c3.567,2.444,7.222,5.57,10.864,9.295c1.563,2.227,24.808,35.16,50.687,62.463c12.765,13.477,24.223,23.531,34.052,29.882
				c33.641,21.744,127.239,88.208,159.234,123.656c31.056,34.406,118.727,213.827,119.609,215.635l0.11,0.227l97.178,105.032
				l2.502-2.318l-96.836-104.662C2372.197,1385.728,2288.225,1214.139,2257.116,1179.673z"/>
		</g>
		<g>
			<path style="fill:#FFCC8F;" d="M1988.622,920.899c-7.694,1.307-31.317,9.933-28.457,22.797
				c2.86,12.864,50.562,75.057,50.562,75.057l14.51,21.045c0,0,5.864,7.321,18.513,2.651c11.478-4.238,18.634-14.928,18.786-15.203
				C2058.84,1022.441,1996.316,919.591,1988.622,920.899z"/>
		</g>
		<g>
			<path d="M1988.337,919.217c-5.291,0.899-21.706,6.182-27.794,15.241c-2.083,3.1-2.771,6.332-2.043,9.608l3.329-0.74
				c-0.524-2.361-0.02-4.639,1.544-6.965c4.964-7.384,19.103-12.642,25.385-13.755c1.364,0.442,6.645,4.85,26.7,34.693
				c12.737,18.955,26.737,41.14,36.001,55.82c4.703,7.453,7.616,12.063,8.994,14.123c-1.917,2.588-8.175,10.241-17.295,13.607
				l1.181,3.2c3.993-1.475,7.472-3.679,10.349-5.984c5.928-4.749,9.3-9.923,9.34-9.997l0.538-0.977l-0.68-0.884
				c-0.758-0.985-4.635-7.13-9.543-14.908c-9.535-15.11-23.943-37.943-36.935-57.21
				C1993.325,918.37,1990.202,918.9,1988.337,919.217z"/>
		</g>
	</g>
	<g>
		<path style="fill:#F7597F;" d="M1271.634,217.109c15.261-16.921,34.68-64.305,10.527-73.911
			c-17.985-7.155-23.853,12.285-25.017,17.141c-3.351-3.705-17.813-17.957-30.172-3.062c-16.599,20.004,23.147,52.294,44.649,59.834
			L1271.634,217.109z"/>
	</g>
	<g>
		<path style="fill:#FD7583;" d="M451.343,660.013c11.799-13.083,26.814-49.719,8.139-57.146
			c-13.906-5.532-18.443,9.499-19.343,13.253c-2.591-2.865-13.772-13.884-23.329-2.367c-12.834,15.467,17.897,40.432,34.522,46.263
			L451.343,660.013z"/>
	</g>
	<g>
		<g>
			<g>
				<g>
					<polygon style="fill:#FBC758;" points="340.217,880.341 332.632,864.897 324.987,880.312 307.956,882.753 320.253,894.786 
						317.312,911.739 332.557,903.762 347.771,911.798 344.895,894.834 357.239,882.848 					"/>
				</g>
			</g>
		</g>
	</g>
	<g>
		<g>
			<g>
				<g>
					<polygon style="fill:#FEC786;" points="2096.431,702.767 2119.63,740.282 2135.295,699.049 2178.142,688.579 2143.769,660.939 
						2147.052,616.953 2110.142,641.103 2069.323,624.389 2080.886,666.955 2052.376,700.61 					"/>
				</g>
			</g>
		</g>
	</g>
	<g>
		<g>
			<g>
				<g>
					<g>
						<g>
							<path style="fill:#FEC786;" d="M1046.884,263.852c-8.347,4.702-20.941,13.251-20.158,29.494l12.812-0.54
								c0.15-5.639,1.536-8.794,5.337-12.085c43.348-23.585,3.37-36.888,26.184-53.578l-6.505-11.05
								C1035.761,232.465,1064.61,255.642,1046.884,263.852z"/>
						</g>
					</g>
				</g>
			</g>
		</g>
	</g>
	<g>
		<g>
			<g>
				<g>
					<g>
						<g>
							<path style="fill:#FD7583;" d="M1959.487,386.127c-37.474,32.102,4.383,36.776-14.449,57.856l8.661,9.45
								c24.401-21.716-7.324-38.457,6.3-49.426c7.805-7.222,18.77-17.116,14.604-34.011l-12.414,3.199
								C1963.217,378.741,1962.518,382.115,1959.487,386.127z"/>
						</g>
					</g>
				</g>
			</g>
		</g>
	</g>
	<g>
		<g>
			<g>
				<g>
					<g>
						<g>
							<path style="fill:#FD7583;" d="M806.302,573.754c21.448,44.439,36.673,5.171,52.235,28.768l11.351-5.955
								c-14.751-29.144-39.051-2.758-46.169-18.734c-4.985-9.393-11.745-22.524-29.143-22.819l-0.084,12.82
								C800.116,568.259,803.199,569.798,806.302,573.754z"/>
						</g>
					</g>
				</g>
			</g>
		</g>
	</g>
	<g>
		<g>
			<g>
				<g>
					<g>
						<g>
							<g>
								<g>
									<path style="fill:#49263E;" d="M1227.624,874.433l-2.857,1.024l-0.511-1.429c-1.878-5.242-3.646-10.625-5.255-16
										l-0.435-1.454l2.907-0.87l0.435,1.454c1.593,5.324,3.344,10.656,5.204,15.848L1227.624,874.433z M1217.912,842.537
										l-2.95,0.713l-0.355-1.476c-1.328-5.496-2.5-11.039-3.485-16.475l-0.271-1.493l2.986-0.541l0.271,1.493
										c0.974,5.379,2.135,10.864,3.448,16.304L1217.912,842.537z M1392.154,733.905c-0.003,0.001-0.005,0.003-0.008,0.004
										c-2.212,1.133-4.602,2.09-7.103,2.841l-1.453,0.437l-0.873-2.906l1.453-0.437c2.326-0.699,4.544-1.586,6.592-2.635
										c0.003-0.001,0.005-0.003,0.008-0.004c2.692-1.379,5.164-3.079,7.348-5.05l1.126-1.017l2.034,2.253l-1.126,1.017
										C1397.772,730.555,1395.08,732.405,1392.154,733.905z M1369.397,738.92l-1.507-0.182
										c-5.645-0.682-10.843-3.386-15.45-8.035l-1.068-1.078l2.155-2.137l1.069,1.078c4.114,4.152,8.71,6.56,13.659,7.159
										l1.507,0.182L1369.397,738.92z M1409.386,715.604l-2.812-1.143l0.571-1.406c1.927-4.741,3.046-10.058,3.326-15.805
										l0.074-1.516l3.031,0.148l-0.073,1.515c-0.297,6.088-1.49,11.741-3.547,16.801L1409.386,715.604z M1211.822,809.795
										l-3.013,0.352l-0.176-1.507c-0.663-5.668-1.127-11.32-1.381-16.797l-0.071-1.516l3.032-0.14l0.071,1.516
										c0.25,5.407,0.708,10.987,1.362,16.585L1211.822,809.795z M1346.42,716.473l-2.78,1.216l-0.609-1.39
										c-2.138-4.883-3.801-10.371-4.943-16.313l-0.286-1.49l2.98-0.573l0.286,1.49c1.1,5.72,2.695,10.992,4.743,15.669
										L1346.42,716.473z M1412.421,681.862l-2.974,0.608l-0.303-1.488c-1.078-5.279-2.756-10.532-4.989-15.614l-0.61-1.389
										l2.778-1.221l0.61,1.389c2.319,5.279,4.064,10.738,5.184,16.228L1412.421,681.862z M1210.094,776.595l-3.034-0.094
										l0.048-1.518c0.179-5.705,0.598-11.366,1.247-16.825l0.179-1.507l3.014,0.358l-0.179,1.506
										c-0.638,5.373-1.051,10.946-1.228,16.564L1210.094,776.595z M1339.377,684.544l-3.034,0.081l-0.04-1.517
										c-0.148-5.493,0.096-11.186,0.72-16.921l0.164-1.509l3.016,0.329l-0.164,1.509c-0.609,5.598-0.847,11.153-0.704,16.511
										L1339.377,684.544z M1396.932,652.345l-0.886-1.232c-1.258-1.753-2.592-3.456-3.964-5.061
										c-2.17-2.539-4.539-4.884-7.042-6.971l-1.165-0.971l1.943-2.331l1.166,0.971c2.634,2.195,5.126,4.661,7.406,7.33
										c1.427,1.669,2.815,3.439,4.124,5.262l0.885,1.233L1396.932,652.345z M1213.785,743.638l-2.965-0.648l0.323-1.482
										c1.214-5.554,2.714-11.035,4.462-16.291l0.478-1.44l2.88,0.957l-0.479,1.44c-1.713,5.155-3.185,10.532-4.375,15.98
										L1213.785,743.638z M1342.497,651.682l-2.956-0.689l0.345-1.478c1.262-5.411,2.865-10.867,4.762-16.218l0.508-1.43
										l2.861,1.014l-0.507,1.431c-1.861,5.245-3.431,10.592-4.668,15.893L1342.497,651.682z M1223.948,712.159l-2.753-1.278
										l0.638-1.376c2.374-5.112,5.068-10.12,8.007-14.884l0.797-1.292l2.582,1.594l-0.797,1.292
										c-2.876,4.662-5.511,9.563-7.835,14.568L1223.948,712.159z M1372.599,631.176l-1.392-0.604
										c-4.862-2.109-10.138-3.602-15.68-4.438l-1.5-0.227l0.453-3l1.501,0.226c5.801,0.877,11.331,2.443,16.434,4.655
										l1.392,0.604L1372.599,631.176z M1240.988,683.856l-2.383-1.879l0.938-1.191c3.473-4.404,7.203-8.689,11.09-12.734
										l1.051-1.095l2.19,2.102l-1.051,1.094c-3.819,3.975-7.484,8.184-10.895,12.511L1240.988,683.856z M1353.215,620.375
										l-2.737-1.309l0.654-1.369c2.398-5.015,5.104-10.011,8.039-14.846l0.788-1.298l2.594,1.576l-0.787,1.297
										c-2.884,4.75-5.54,9.656-7.895,14.581L1353.215,620.375z M1340.667,625.392l-1.515,0.096
										c-5.275,0.331-10.751,1.168-16.273,2.484l-1.477,0.351l-0.703-2.952l1.476-0.353c5.691-1.356,11.338-2.217,16.786-2.56
										l1.515-0.095L1340.667,625.392z M1263.735,659.751l-1.971-2.307l1.153-0.986c4.302-3.677,8.805-7.146,13.381-10.313
										l1.248-0.863l1.727,2.495l-1.249,0.864c-4.492,3.108-8.911,6.514-13.135,10.123L1263.735,659.751z M1308.547,632.398
										l-1.412,0.556c-5.007,1.969-10.051,4.325-14.996,7.003l-1.333,0.722l-1.446-2.669l1.335-0.722
										c5.038-2.733,10.207-5.144,15.329-7.159l1.412-0.555L1308.547,632.398z M1370.151,591.926l-2.403-1.853l0.927-1.202
										c3.376-4.375,7.132-8.652,11.167-12.714l1.069-1.076l2.153,2.139l-1.07,1.077c-3.944,3.971-7.618,8.153-10.917,12.429
										L1370.151,591.926z M1501.746,521.04l-1.487,0.305c-5.419,1.109-10.882,2.374-16.24,3.757l-1.469,0.38l-0.76-2.938
										l1.469-0.379c5.407-1.397,10.921-2.672,16.391-3.793l1.486-0.304L1501.746,521.04z M1469.444,529.232l-1.448,0.456
										c-5.357,1.688-10.652,3.521-15.74,5.45l-1.418,0.538l-1.076-2.837l1.419-0.538c5.139-1.948,10.491-3.802,15.904-5.508
										l1.446-0.456L1469.444,529.232z M1393.135,568.173l-1.904-2.363l1.182-0.952c4.264-3.436,8.859-6.778,13.654-9.933
										l1.268-0.834l1.668,2.535l-1.268,0.834c-4.716,3.103-9.23,6.387-13.419,9.761L1393.135,568.173z M1438.266,540.895
										l-1.382,0.627c-5.118,2.324-10.052,4.775-14.892,7.407l-1.332,0.725l-1.451-2.665l1.333-0.726
										c4.897-2.668,9.9-5.152,15.088-7.505l1.38-0.627L1438.266,540.895z"/>
								</g>
							</g>
						</g>
					</g>
				</g>
			</g>
		</g>
		<g>
			<g>
				<g>
					<g>
						<g>
							<g>
								<path style="fill:#EF9D43;" d="M1519.465,530.396l4.692-18.307c0,0,52.051-33.727,52.625-34.504
									c0.574-0.776,21.717-29.248,21.717-29.248l-36.611,15.866l-53.928,37.676L1519.465,530.396z"/>
							</g>
						</g>
					</g>
				</g>
			</g>
			<g>
				<g>
					<g>
						<g>
							<g>
								<polygon style="fill:#FEC786;" points="1480.44,480.062 1598.5,448.337 1507.96,501.879 								"/>
							</g>
						</g>
					</g>
				</g>
			</g>
			<g>
				<g>
					<g>
						<g>
							<g>
								<polygon style="fill:#FEC786;" points="1524.157,512.089 1553.251,535.426 1598.5,448.337 								"/>
							</g>
						</g>
					</g>
				</g>
			</g>
		</g>
	</g>
	<g>
		<polygon points="2244.143,1707.934 2241.48,1710.067 2179.187,1632.308 2181.109,1629.095 		"/>
	</g>
	<g>
		<g>
			<g>
				<path style="fill:#9DF2CD;" d="M784.329,1280.06h377.984c5.43,0,9.831-4.402,9.831-9.831v-225.536
					c0-5.43-4.402-9.831-9.831-9.831H784.329c-5.43,0-9.831,4.401-9.831,9.831v225.536
					C774.497,1275.659,778.899,1280.06,784.329,1280.06z"/>
			</g>
		</g>
		<g>
			<g>
				<g>
					<path style="fill:#7FC6A6;" d="M811.84,1079.506h331.574c2.295,0,4.155-1.86,4.155-4.155c0-2.295-1.86-4.155-4.155-4.155
						H811.84c-2.295,0-4.155,1.86-4.155,4.155C807.685,1077.646,809.545,1079.506,811.84,1079.506z"/>
				</g>
			</g>
		</g>
		<g>
			<g>
				<g>
					<path style="fill:#7FC6A6;" d="M811.84,1126.698h331.574c2.295,0,4.155-1.86,4.155-4.155c0-2.295-1.86-4.155-4.155-4.155
						H811.84c-2.295,0-4.155,1.86-4.155,4.155C807.685,1124.839,809.545,1126.698,811.84,1126.698z"/>
				</g>
			</g>
		</g>
		<g>
			<g>
				<g>
					<path style="fill:#7FC6A6;" d="M927.974,1173.89h215.44c2.295,0,4.155-1.86,4.155-4.155s-1.86-4.155-4.155-4.155h-215.44
						c-2.295,0-4.155,1.86-4.155,4.155S925.679,1173.89,927.974,1173.89z"/>
				</g>
			</g>
		</g>
		<g>
			<g>
				<g>
					<path style="fill:#7FC6A6;" d="M809.379,1173.89h85.972c2.295,0,4.155-1.86,4.155-4.155s-1.86-4.155-4.155-4.155h-85.972
						c-2.295,0-4.155,1.86-4.155,4.155S807.083,1173.89,809.379,1173.89z"/>
				</g>
			</g>
		</g>
		<g>
			<g>
				<g>
					<path style="fill:#7FC6A6;" d="M1007.995,1221.083h135.42c2.295,0,4.155-1.86,4.155-4.155c0-2.295-1.86-4.155-4.155-4.155
						h-135.42c-2.295,0-4.155,1.86-4.155,4.155C1003.84,1219.223,1005.7,1221.083,1007.995,1221.083z"/>
				</g>
			</g>
		</g>
		<g>
			<g>
				<g>
					<path style="fill:#7FC6A6;" d="M809.379,1221.083h168.25c2.295,0,4.155-1.86,4.155-4.155c0-2.295-1.86-4.155-4.155-4.155
						h-168.25c-2.295,0-4.155,1.86-4.155,4.155C805.224,1219.223,807.083,1221.083,809.379,1221.083z"/>
				</g>
			</g>
		</g>
		<g>
			<g>
				<path style="fill:#9DF2CD;" d="M896.096,1269.221c-0.41,1.642-90.872,82.483-90.872,82.483l24.363-84.18L896.096,1269.221z"/>
			</g>
		</g>
	</g>
	<g>
		<g>
			<g>
				<path style="fill:#C2F2DD;" d="M974.897,567.27h306.871c4.408,0,7.982-3.573,7.982-7.982V376.185
					c0-4.408-3.573-7.982-7.982-7.982H974.897c-4.408,0-7.982,3.573-7.982,7.982v183.104
					C966.915,563.697,970.489,567.27,974.897,567.27z"/>
			</g>
		</g>
		<g>
			<g>
				<g>
					<path style="fill:#7FC6A6;" d="M997.232,404.448h269.193c1.864,0,3.373-1.51,3.373-3.373c0-1.863-1.51-3.373-3.373-3.373
						H997.232c-1.863,0-3.373,1.51-3.373,3.373C993.859,402.938,995.369,404.448,997.232,404.448z"/>
				</g>
			</g>
		</g>
		<g>
			<g>
				<g>
					<path style="fill:#7FC6A6;" d="M997.232,442.762h269.193c1.864,0,3.373-1.51,3.373-3.373c0-1.863-1.51-3.373-3.373-3.373
						H997.232c-1.863,0-3.373,1.51-3.373,3.373C993.859,441.252,995.369,442.762,997.232,442.762z"/>
				</g>
			</g>
		</g>
		<g>
			<g>
				<g>
					<path style="fill:#7FC6A6;" d="M1091.517,481.075h174.908c1.864,0,3.373-1.51,3.373-3.373c0-1.863-1.51-3.373-3.373-3.373
						h-174.908c-1.864,0-3.373,1.51-3.373,3.373C1088.144,479.565,1089.654,481.075,1091.517,481.075z"/>
				</g>
			</g>
		</g>
		<g>
			<g>
				<g>
					<path style="fill:#7FC6A6;" d="M995.234,481.075h69.797c1.863,0,3.373-1.51,3.373-3.373c0-1.863-1.51-3.373-3.373-3.373
						h-69.797c-1.863,0-3.373,1.51-3.373,3.373C991.861,479.565,993.37,481.075,995.234,481.075z"/>
				</g>
			</g>
		</g>
		<g>
			<g>
				<g>
					<path style="fill:#7FC6A6;" d="M1156.483,519.389h109.942c1.864,0,3.373-1.51,3.373-3.373s-1.51-3.373-3.373-3.373h-109.942
						c-1.863,0-3.373,1.51-3.373,3.373S1154.619,519.389,1156.483,519.389z"/>
				</g>
			</g>
		</g>
		<g>
			<g>
				<g>
					<path style="fill:#7FC6A6;" d="M995.234,519.389h136.595c1.863,0,3.373-1.51,3.373-3.373s-1.51-3.373-3.373-3.373H995.234
						c-1.863,0-3.373,1.51-3.373,3.373S993.37,519.389,995.234,519.389z"/>
				</g>
			</g>
		</g>
		<g>
			<g>
				<path style="fill:#C2F2DD;" d="M1065.636,558.47c-0.333,1.333-73.775,66.965-73.775,66.965l19.779-68.342L1065.636,558.47z"/>
			</g>
		</g>
	</g>
	<g>
		<g>
			<g>
				<path style="fill:#FFE2BF;" d="M704.304,895.697h380.011c4.799,0,8.69-3.891,8.69-8.69V722.672c0-4.799-3.891-8.69-8.69-8.69
					H704.304c-4.799,0-8.69,3.891-8.69,8.69v164.335C695.615,891.807,699.505,895.697,704.304,895.697z"/>
			</g>
		</g>
		<g>
			<g>
				<g>
					<path style="fill:#F7AB48;" d="M728.622,760.141h338.99c2.029,0,3.673-1.644,3.673-3.673c0-2.029-1.644-3.672-3.673-3.672
						h-338.99c-2.029,0-3.673,1.644-3.673,3.672C724.949,758.497,726.593,760.141,728.622,760.141z"/>
				</g>
			</g>
		</g>
		<g>
			<g>
				<g>
					<path style="fill:#F7AB48;" d="M831.272,801.854h236.34c2.029,0,3.673-1.644,3.673-3.673s-1.644-3.672-3.673-3.672h-236.34
						c-2.029,0-3.673,1.644-3.673,3.672S829.243,801.854,831.272,801.854z"/>
				</g>
			</g>
		</g>
		<g>
			<g>
				<g>
					<path style="fill:#F7AB48;" d="M726.446,801.854h75.99c2.029,0,3.673-1.644,3.673-3.673s-1.644-3.672-3.673-3.672h-75.99
						c-2.029,0-3.672,1.644-3.672,3.672S724.417,801.854,726.446,801.854z"/>
				</g>
			</g>
		</g>
		<g>
			<g>
				<g>
					<path style="fill:#F7AB48;" d="M902.001,843.567h165.61c2.029,0,3.673-1.644,3.673-3.673c0-2.029-1.644-3.673-3.673-3.673
						h-165.61c-2.029,0-3.672,1.644-3.672,3.673C898.329,841.923,899.973,843.567,902.001,843.567z"/>
				</g>
			</g>
		</g>
		<g>
			<g>
				<g>
					<path style="fill:#F7AB48;" d="M726.446,843.567h148.715c2.029,0,3.672-1.644,3.672-3.673c0-2.029-1.644-3.673-3.672-3.673
						H726.446c-2.029,0-3.672,1.644-3.672,3.673C722.773,841.923,724.417,843.567,726.446,843.567z"/>
				</g>
			</g>
		</g>
		<g>
			<g>
				<path style="fill:#FFE2BF;" d="M803.094,886.116c-0.363,1.451-80.321,72.906-80.321,72.906l21.534-74.406L803.094,886.116z"/>
			</g>
		</g>
	</g>
	<g>
		<g>
			<g>
				<path style="fill:#FDC8CE;" d="M1933.053,1371.743h-458.73c-6.589,0-11.931-5.342-11.931-11.931v-209.291
					c0-6.589,5.342-11.931,11.931-11.931h458.73c6.589,0,11.931,5.342,11.931,11.931v209.291
					C1944.984,1366.401,1939.642,1371.743,1933.053,1371.743z"/>
			</g>
		</g>
		<g>
			<g>
				<g>
					<path style="fill:#FD7583;" d="M1899.664,1192.771h-402.406c-2.786,0-5.043-2.258-5.043-5.042c0-2.785,2.257-5.043,5.043-5.043
						h402.406c2.786,0,5.043,2.258,5.043,5.043C1904.707,1190.513,1902.449,1192.771,1899.664,1192.771z"/>
				</g>
			</g>
		</g>
		<g>
			<g>
				<g>
					<path style="fill:#FD7583;" d="M1899.664,1250.045h-402.406c-2.786,0-5.043-2.257-5.043-5.043c0-2.785,2.257-5.042,5.043-5.042
						h402.406c2.786,0,5.043,2.257,5.043,5.042C1904.707,1247.788,1902.449,1250.045,1899.664,1250.045z"/>
				</g>
			</g>
		</g>
		<g>
			<g>
				<g>
					<path style="fill:#FD7583;" d="M1758.721,1307.318h-261.463c-2.786,0-5.043-2.257-5.043-5.043c0-2.786,2.257-5.042,5.043-5.042
						h261.463c2.786,0,5.043,2.257,5.043,5.042C1763.764,1305.061,1761.507,1307.318,1758.721,1307.318z"/>
				</g>
			</g>
		</g>
		<g>
			<g>
				<g>
					<path style="fill:#FD7583;" d="M1902.651,1307.318h-104.337c-2.786,0-5.043-2.257-5.043-5.043c0-2.786,2.257-5.042,5.043-5.042
						h104.337c2.786,0,5.042,2.257,5.042,5.042C1907.694,1305.061,1905.437,1307.318,1902.651,1307.318z"/>
				</g>
			</g>
		</g>
		<g>
			<g>
				<path style="fill:#FDC8CE;" d="M1797.41,1358.588c0.498,1.992,110.284,100.104,110.284,100.104l-29.567-102.162
					L1797.41,1358.588z"/>
			</g>
		</g>
	</g>
	<g>
		<g>
			<g>
				<path style="fill:#FDC8CE;" d="M1816.818,357.213h-340.595c-4.893,0-8.859-3.966-8.859-8.859V192.961
					c0-4.893,3.966-8.859,8.859-8.859h340.595c4.893,0,8.859,3.966,8.859,8.859v155.393
					C1825.677,353.246,1821.71,357.213,1816.818,357.213z"/>
			</g>
		</g>
		<g>
			<g>
				<g>
					<path style="fill:#FD7583;" d="M1792.027,224.331h-298.776c-2.068,0-3.744-1.676-3.744-3.744c0-2.068,1.676-3.744,3.744-3.744
						h298.776c2.068,0,3.744,1.676,3.744,3.744C1795.772,222.654,1794.096,224.331,1792.027,224.331z"/>
				</g>
			</g>
		</g>
		<g>
			<g>
				<g>
					<path style="fill:#FD7583;" d="M1792.027,266.855h-298.776c-2.068,0-3.744-1.676-3.744-3.744c0-2.068,1.676-3.744,3.744-3.744
						h298.776c2.068,0,3.744,1.676,3.744,3.744C1795.772,265.179,1794.096,266.855,1792.027,266.855z"/>
				</g>
			</g>
		</g>
		<g>
			<g>
				<g>
					<path style="fill:#FD7583;" d="M1687.381,309.379h-194.13c-2.068,0-3.744-1.676-3.744-3.744c0-2.068,1.676-3.744,3.744-3.744
						h194.13c2.068,0,3.744,1.676,3.744,3.744C1691.125,307.703,1689.449,309.379,1687.381,309.379z"/>
				</g>
			</g>
		</g>
		<g>
			<g>
				<g>
					<path style="fill:#FD7583;" d="M1794.246,309.379h-77.468c-2.068,0-3.744-1.676-3.744-3.744c0-2.068,1.676-3.744,3.744-3.744
						h77.468c2.068,0,3.744,1.676,3.744,3.744C1797.99,307.703,1796.314,309.379,1794.246,309.379z"/>
				</g>
			</g>
		</g>
		<g>
			<g>
				<path style="fill:#FDC8CE;" d="M1716.106,347.446c0.37,1.479,81.883,74.324,81.883,74.324l-21.953-75.853L1716.106,347.446z"/>
			</g>
		</g>
	</g>
	<g>
		<g>
			<g>
				<path style="fill:#AEE2E8;" d="M1724.834,983.173h-367.352c-3.828,0-6.932-3.103-6.932-6.932V817.224
					c0-3.828,3.103-6.932,6.932-6.932h367.352c3.828,0,6.932,3.103,6.932,6.932v159.017
					C1731.766,980.069,1728.662,983.173,1724.834,983.173z"/>
			</g>
		</g>
		<g>
			<g>
				<g>
					<path style="fill:#61A3C5;" d="M1705.437,841.769h-334.63c-1.618,0-2.93-1.312-2.93-2.929s1.311-2.93,2.93-2.93h334.63
						c1.618,0,2.93,1.312,2.93,2.93S1707.055,841.769,1705.437,841.769z"/>
				</g>
			</g>
		</g>
		<g>
			<g>
				<g>
					<path style="fill:#61A3C5;" d="M1705.437,875.043h-334.63c-1.618,0-2.93-1.311-2.93-2.93c0-1.618,1.311-2.929,2.93-2.929
						h334.63c1.618,0,2.93,1.311,2.93,2.929C1708.366,873.732,1707.055,875.043,1705.437,875.043z"/>
				</g>
			</g>
		</g>
		<g>
			<g>
				<g>
					<path style="fill:#61A3C5;" d="M1623.555,908.316h-252.748c-1.618,0-2.93-1.311-2.93-2.93c0-1.618,1.311-2.929,2.93-2.929
						h252.748c1.618,0,2.93,1.311,2.93,2.929C1626.484,907.005,1625.173,908.316,1623.555,908.316z"/>
				</g>
			</g>
		</g>
		<g>
			<g>
				<g>
					<path style="fill:#61A3C5;" d="M1707.172,908.316h-60.615c-1.618,0-2.93-1.311-2.93-2.93c0-1.618,1.311-2.929,2.93-2.929
						h60.615c1.618,0,2.929,1.311,2.929,2.929C1710.102,907.005,1708.791,908.316,1707.172,908.316z"/>
				</g>
			</g>
		</g>
		<g>
			<g>
				<g>
					<path style="fill:#61A3C5;" d="M1567.135,941.59h-196.329c-1.618,0-2.93-1.311-2.93-2.93c0-1.618,1.311-2.93,2.93-2.93h196.329
						c1.618,0,2.929,1.311,2.929,2.93C1570.065,940.279,1568.754,941.59,1567.135,941.59z"/>
				</g>
			</g>
		</g>
		<g>
			<g>
				<g>
					<path style="fill:#61A3C5;" d="M1707.172,941.59h-118.626c-1.618,0-2.929-1.311-2.929-2.93c0-1.618,1.311-2.93,2.929-2.93
						h118.626c1.618,0,2.929,1.311,2.929,2.93C1710.102,940.279,1708.791,941.59,1707.172,941.59z"/>
				</g>
			</g>
		</g>
		<g>
			<g>
				<path style="fill:#AEE2E8;" d="M1646.032,975.53c0.289,1.157,54.176,63.497,54.176,63.497l-7.282-64.693L1646.032,975.53z"/>
			</g>
		</g>
	</g>
</g>
</svg>
